<?xml version="1.0" encoding="UTF-8" standalone="no"?>
<svg
   xmlns:dc="http://purl.org/dc/elements/1.1/"
   xmlns:cc="http://creativecommons.org/ns#"
   xmlns:rdf="http://www.w3.org/1999/02/22-rdf-syntax-ns#"
   xmlns:svg="http://www.w3.org/2000/svg"
   xmlns="http://www.w3.org/2000/svg"
   xmlns:sodipodi="http://sodipodi.sourceforge.net/DTD/sodipodi-0.dtd"
   xmlns:inkscape="http://www.inkscape.org/namespaces/inkscape"
   width="113.8957mm"
   height="44.858509mm"
   viewBox="0 0 113.8957 44.858509"
   version="1.1"
   id="svg8"
   sodipodi:docname="am-logo.svg"
   inkscape:export-filename="C:\Users\leonardo.masi\Documents\Programmi\GST\personale\static\personale\img\am-logo.png"
   inkscape:export-xdpi="96"
   inkscape:export-ydpi="96"
   inkscape:version="0.92.3 (2405546, 2018-03-11)">
  <sodipodi:namedview
     pagecolor="#ffffff"
     bordercolor="#666666"
     borderopacity="1"
     objecttolerance="10"
     gridtolerance="10"
     guidetolerance="10"
     inkscape:pageopacity="0"
     inkscape:pageshadow="2"
     inkscape:window-width="1920"
     inkscape:window-height="1017"
     id="namedview7"
     showgrid="false"
     inkscape:zoom="0.84326056"
     inkscape:cx="215.23597"
     inkscape:cy="84.771986"
     inkscape:window-x="-8"
     inkscape:window-y="-8"
     inkscape:window-maximized="1"
     inkscape:current-layer="svg8" />
  <defs
     id="defs2" />
  <metadata
     id="metadata5">
    <rdf:RDF>
      <cc:Work
         rdf:about="">
        <dc:format>image/svg+xml</dc:format>
        <dc:type
           rdf:resource="http://purl.org/dc/dcmitype/StillImage" />
        <dc:title />
      </cc:Work>
    </rdf:RDF>
  </metadata>
  <g
     style="fill:#ff3801;fill-opacity:1;stroke:none;stroke-opacity:1;stroke-width:0.79375;stroke-miterlimit:4;stroke-dasharray:none"
     id="layer1"
     transform="translate(-35.998075,-17.668764)">
    <path
       style="fill:#ff3801;fill-opacity:1;stroke:none;stroke-width:0.79375;stroke-opacity:1;stroke-miterlimit:4;stroke-dasharray:none"
       d="m 97.935519,60.877537 c -2.227762,-2.279713 -6.925746,-8.459041 -11.524823,-15.158765 -1.951035,-2.84218 -2.839374,-3.881786 -3.31696,-3.881786 -0.539589,0 -6.857934,1.620919 -9.252953,2.373767 -3.747243,1.177907 -9.755938,3.669096 -14.174107,5.876549 -5.840053,2.917868 -9.60084,5.211895 -15.672911,9.560259 -2.789682,1.997762 -3.553121,2.41115 -4.452861,2.41115 -2.219134,0 -4.055062,-2.458043 -3.258989,-4.363312 1.146072,-2.742933 13.442757,-10.919738 23.006785,-15.298592 14.416611,-6.600592 28.034909,-9.503556 40.82143,-8.70176 10.26193,0.643491 18.62226,2.55763 30.89955,7.074601 1.06262,0.390951 1.33454,0.434343 1.38201,0.220539 0.0325,-0.1464 0.18132,-0.219271 0.33072,-0.161941 0.14941,0.05733 0.27165,0.01323 0.27165,-0.098 0,-0.454668 -8.94307,-5.360641 -14.39376,-7.896114 -11.7296,-5.456193 -21.725641,-8.398383 -28.468973,-8.379431 -2.011473,0.0057 -3.131809,0.245914 -4.028675,0.863968 -1.426583,0.983096 -1.650624,2.775757 -0.645396,5.164074 0.275439,0.654415 0.474581,1.209281 0.442537,1.233032 -0.207274,0.153636 -6.443258,1.038783 -6.606701,0.937768 -0.319765,-0.197625 -1.109792,-2.116881 -1.502759,-3.650731 -0.885267,-3.455427 -0.07039,-6.79336 2.160423,-8.849656 1.022178,-0.942208 1.856354,-1.38321 3.719695,-1.966484 1.269196,-0.397291 1.746427,-0.44051 4.627922,-0.419111 3.763082,0.02795 5.985095,0.336074 10.110862,1.40207 6.581175,1.700411 12.182635,3.888118 20.505205,8.008519 14.68231,7.269025 29.77499,17.514855 30.69834,20.83989 0.40209,1.447967 0.17927,2.399231 -0.80256,3.426217 -1.64017,1.715603 -3.21589,1.606052 -7.78417,-0.541187 -14.99232,-7.046878 -27.56975,-10.207794 -41.873574,-10.523516 -4.948463,-0.109228 -6.701229,-0.01638 -7.248705,0.383931 -0.280794,0.205325 -0.241403,0.342308 0.40409,1.405181 1.522294,2.506626 5.595353,8.119869 10.654059,14.682785 1.13315,1.470099 1.15587,1.522693 1.07561,2.490459 -0.15071,1.817444 -1.63927,3.081795 -3.63869,3.090627 -0.929621,0.0041 -0.95605,-0.01259 -2.463321,-1.555 z"
       id="path830" />
  </g>
</svg>
